<!--?xml version="1.0" encoding="utf-8"?-->
<!-- Generator: Adobe Illustrator 18.1.1, SVG Export Plug-In . SVG Version: 6.00 Build 0)  -->

<svg version="1.1" id="_x32_" xmlns="http://www.w3.org/2000/svg" xmlns:xlink="http://www.w3.org/1999/xlink" x="0px" y="0px" viewBox="0 0 512 512" style="enable-background:new 0 0 512 512;" xml:space="preserve">
<style type="text/css">
	.st0{fill:#4B4B4B;}
</style>
<g>
	<path class="st0" d="M438.837,0h-29.699H73.162c-21.47,0-38.877,17.407-38.877,38.87v434.253c0,21.471,17.407,38.877,38.877,38.877
		h297.106c21.471,0,38.87-17.406,38.87-38.877V137.146h41.364c15.028,0,27.214-12.179,27.214-27.207V38.87
		C477.716,17.407,460.309,0,438.837,0z M172.116,198.58c-1.557-10.557-3.7-31.428,1.836-41.899c0,0-3.786-6.822-3.786-15.872
		c15.878,2.257,66.506-30.235,81.627-3.771c21.899-2.278,34.999,28.635,25.07,61.542c0,0,12.278-0.572,7.365,16.628
		c-4.6,16.164-8.293,19.857-14.757,22.156c-2.764,15.7-7.428,29.549-13.564,36.371c0,8.178,0,14.149,0,18.921
		c0,0.486,0.072,1,0.228,1.521l-21.492,10.328v15.192h-20.235v-15.192l-21.492-10.343c0.135-0.522,0.228-1.021,0.228-1.507
		c0-4.772,0-10.743,0-18.921c-6.135-6.822-10.778-20.671-13.564-36.371c-6.463-2.3-10.156-5.992-14.756-22.156
		C160.081,198.694,171.202,198.58,172.116,198.58z M224.522,398.903c-72.549,0-122.418-9.414-123.197-18.485
		c-3.149-37.799,45.813-57.97,65.748-64.998c1.95-0.7,4.221-1.764,6.578-3.078l38.056,52.62l2.7-34.477h20.235l2.714,34.463
		l38.041-52.606c2.293,1.242,4.514,2.314,6.578,3.078c19.8,7.407,68.899,27.17,65.749,64.998
		C346.969,389.489,297.077,398.903,224.522,398.903z"></path>
	<path class="st0" d="M450.502,155.424h-22.157v137.153h22.157c15.028,0,27.214-12.185,27.214-27.213v-82.719
		C477.716,167.61,465.53,155.424,450.502,155.424z"></path>
</g>
</svg>
